<svg xmlns="http://www.w3.org/2000/svg" xmlns:xlink="http://www.w3.org/1999/xlink" width="48" height="39.995" viewBox="0 0 48 39.995">
  <defs>
    <clipPath id="clip-path">
      <path id="Path_1178" data-name="Path 1178" d="M97.487,117.935V96.119A1.776,1.776,0,0,1,99.2,94.3h37.713a1.771,1.771,0,0,1,1.714,1.819v21.817a1.771,1.771,0,0,1-1.714,1.819H99.2a1.776,1.776,0,0,1-1.714-1.819m18.858-29.089a1.717,1.717,0,0,1,3.429-.183,1.5,1.5,0,0,1,0,.183v1.819h-3.429Zm-3.429,0v1.819H99.2a5.309,5.309,0,0,0-5.139,5.453v21.817a5.312,5.312,0,0,0,5.139,5.457h37.713a5.313,5.313,0,0,0,5.143-5.457V96.119a5.31,5.31,0,0,0-5.143-5.453H123.2V88.846a5.15,5.15,0,1,0-10.283,0" transform="translate(-94.059 -83.397)" fill="none"/>
    </clipPath>
    <linearGradient id="linear-gradient" x1="-7.293" y1="3.401" x2="-7.216" y2="3.401" gradientUnits="objectBoundingBox">
      <stop offset="0" stop-color="#4d4d4d"/>
      <stop offset="1" stop-color="#040404"/>
    </linearGradient>
    <clipPath id="clip-path-2">
      <path id="Path_1179" data-name="Path 1179" d="M98.891,105.008a.383.383,0,0,1-.067-.329,7.681,7.681,0,0,1,7.433-5.763,7.862,7.862,0,0,1,1.931.243,7.7,7.7,0,0,1,5.517,5.52.372.372,0,0,1-.071.329l-.015.022a.381.381,0,0,1-.284.127H99.194a.391.391,0,0,1-.3-.149M103.145,92.9a3.126,3.126,0,0,1,3.055-3.119h.063a3.121,3.121,0,1,1-3.119,3.119m-2.887,0a5.975,5.975,0,0,0,1.614,4.094,10.559,10.559,0,0,0-5.842,6.97,3.26,3.26,0,0,0,2.349,3.982,3.335,3.335,0,0,0,.814.1h14.148a3.269,3.269,0,0,0,3.156-4.082,10.563,10.563,0,0,0-5.842-6.973,6,6,0,1,0-10.4-4.094" transform="translate(-95.923 -86.893)" fill="none"/>
    </clipPath>
    <linearGradient id="linear-gradient-2" x1="-17.105" y1="5.814" x2="-16.927" y2="5.814" xlink:href="#linear-gradient"/>
    <clipPath id="clip-path-3">
      <path id="Path_1180" data-name="Path 1180" d="M104.056,87.3a1.8,1.8,0,0,0,0,3.593h6.689a1.8,1.8,0,1,0,0-3.593Z" transform="translate(-102.259 -87.302)" fill="none"/>
    </clipPath>
    <linearGradient id="linear-gradient-3" x1="-37.145" y1="33.798" x2="-36.781" y2="33.798" xlink:href="#linear-gradient"/>
    <clipPath id="clip-path-4">
      <path id="Path_1181" data-name="Path 1181" d="M104.056,89.243a1.8,1.8,0,0,0,0,3.593h6.689a1.8,1.8,0,1,0,0-3.593Z" transform="translate(-102.259 -89.243)" fill="none"/>
    </clipPath>
    <linearGradient id="linear-gradient-4" x1="-37.145" y1="31.781" x2="-36.781" y2="31.781" xlink:href="#linear-gradient"/>
    <clipPath id="clip-path-5">
      <path id="Path_1182" data-name="Path 1182" d="M104.056,91.184a1.8,1.8,0,0,0,0,3.593h6.689a1.8,1.8,0,1,0,0-3.593Z" transform="translate(-102.259 -91.184)" fill="none"/>
    </clipPath>
    <linearGradient id="linear-gradient-5" x1="-37.145" y1="29.763" x2="-36.781" y2="29.763" xlink:href="#linear-gradient"/>
  </defs>
  <g id="Group_4436" data-name="Group 4436" transform="translate(0 0)">
    <g id="Group_4380" data-name="Group 4380" transform="translate(0 0)">
      <g id="Group_4379" data-name="Group 4379" transform="translate(0 0)" clip-path="url(#clip-path)">
        <rect id="Rectangle_3335" data-name="Rectangle 3335" width="48.16" height="39.995" transform="translate(-0.08 0)" fill="url(#linear-gradient)"/>
      </g>
    </g>
    <g id="Group_4382" data-name="Group 4382" transform="translate(6.964 13.059)">
      <g id="Group_4381" data-name="Group 4381" transform="translate(0 0)" clip-path="url(#clip-path-2)">
        <rect id="Rectangle_3336" data-name="Rectangle 3336" width="20.939" height="21.152" transform="translate(-0.114 0)" fill="url(#linear-gradient-2)"/>
      </g>
    </g>
    <g id="Group_4384" data-name="Group 4384" transform="translate(30.628 14.585)">
      <g id="Group_4383" data-name="Group 4383" transform="translate(0 0)" clip-path="url(#clip-path-3)">
        <rect id="Rectangle_3337" data-name="Rectangle 3337" width="10.283" height="3.593" transform="translate(0 0)" fill="url(#linear-gradient-3)"/>
      </g>
    </g>
    <g id="Group_4386" data-name="Group 4386" transform="translate(30.628 21.835)">
      <g id="Group_4385" data-name="Group 4385" transform="translate(0 0)" clip-path="url(#clip-path-4)">
        <rect id="Rectangle_3338" data-name="Rectangle 3338" width="10.283" height="3.593" transform="translate(0 0)" fill="url(#linear-gradient-4)"/>
      </g>
    </g>
    <g id="Group_4388" data-name="Group 4388" transform="translate(30.628 29.085)">
      <g id="Group_4387" data-name="Group 4387" transform="translate(0 0)" clip-path="url(#clip-path-5)">
        <rect id="Rectangle_3339" data-name="Rectangle 3339" width="10.283" height="3.593" transform="translate(0 0)" fill="url(#linear-gradient-5)"/>
      </g>
    </g>
  </g>
</svg>
