<svg xmlns="http://www.w3.org/2000/svg" xmlns:xlink="http://www.w3.org/1999/xlink" width="48" height="47.962" viewBox="0 0 48 47.962">
  <defs>
    <clipPath id="clip-path">
      <path id="Path_1160" data-name="Path 1160" d="M40.168,123.812v0a2.731,2.731,0,0,1,2.729-2.729h0a2.731,2.731,0,1,1-2.733,2.733m2.722-6.488a6.479,6.479,0,0,0,.007,12.957h.007a6.479,6.479,0,0,0,0-12.957H42.89m13.882,6.488v0a2.729,2.729,0,1,1,2.729,2.733,2.728,2.728,0,0,1-2.729-2.733m2.722-6.492a6.48,6.48,0,0,0,.007,12.961h.007A6.48,6.48,0,0,0,59.5,117.32h0m-4.65-28.275-.69.694-2.528,2.524-.414-.41a1.4,1.4,0,0,0-2.248,1.629,1.429,1.429,0,0,0,.254.347l.011.007,1.4,1.4h0a1.4,1.4,0,0,0,1.987,0l1.764-1.756,2.45-2.45a1.406,1.406,0,0,0-1.987-1.987m7.916,4.437h5v7.644a10.69,10.69,0,0,1-10.69,10.69h-14.3a4.41,4.41,0,0,1-4.415-4.4V93.483h4.926a9.836,9.836,0,0,0,19.486,0m-15.679,0a6.072,6.072,0,1,1,5.936,4.765,6.054,6.054,0,0,1-5.936-4.765M43.49,89.739H37.636l-3.169-6.324a1.876,1.876,0,0,0-1.678-1.037h-7.45a1.87,1.87,0,1,0,.082,3.74h6.212L34.6,92.051v15.358a8.156,8.156,0,0,0,8.155,8.151H57.063a14.435,14.435,0,0,0,14.445-14.419V91.607a1.87,1.87,0,0,0-1.872-1.868H62.563a9.838,9.838,0,0,0-19.072,0" transform="translate(-23.508 -82.319)" fill="none"/>
    </clipPath>
    <linearGradient id="linear-gradient" x1="-1.825" y1="2.915" x2="-1.747" y2="2.915" gradientUnits="objectBoundingBox">
      <stop offset="0" stop-color="#4d4d4d"/>
      <stop offset="1" stop-color="#040404"/>
    </linearGradient>
  </defs>
  <g id="Group_4433" data-name="Group 4433" transform="translate(0.001 0)">
    <g id="Group_4336" data-name="Group 4336" transform="translate(-0.001 0)">
      <g id="Group_4335" data-name="Group 4335" transform="translate(0 0)" clip-path="url(#clip-path)">
        <rect id="Rectangle_3309" data-name="Rectangle 3309" width="48.022" height="47.962" transform="translate(-0.022 0)" fill="url(#linear-gradient)"/>
      </g>
    </g>
  </g>
</svg>
