<svg id="Group_4298" data-name="Group 4298" xmlns="http://www.w3.org/2000/svg" xmlns:xlink="http://www.w3.org/1999/xlink" width="48" height="47.997" viewBox="0 0 48 47.997">
  <defs>
    <clipPath id="clip-path">
      <path id="Path_1141" data-name="Path 1141" d="M113.127,24.162a5.678,5.678,0,1,1,5.677,5.5,5.589,5.589,0,0,1-5.677-5.5m-3.869,0a9.549,9.549,0,0,0,19.089,0,9.549,9.549,0,0,0-19.089,0m4.7-16.478a6.308,6.308,0,0,0,.34-1.221l.437-2.555h8.134l.441,2.555a6.749,6.749,0,0,0,7.791,5.393,7.37,7.37,0,0,0,1.262-.325l2.5-.908,4.071,6.827h0l-2.062,1.643a6.425,6.425,0,0,0-.923,9.236,6.756,6.756,0,0,0,.923.9l2.062,1.643L134.86,37.7l-2.5-.908a6.839,6.839,0,0,0-8.717,3.847,6.3,6.3,0,0,0-.336,1.221l-.441,2.551h-8.131l-.441-2.551a6.755,6.755,0,0,0-7.795-5.393,7.244,7.244,0,0,0-1.259.325l-2.5.908L98.674,30.87l2.062-1.643a6.422,6.422,0,0,0,.923-9.236,6.753,6.753,0,0,0-.923-.9l-2.062-1.643,4.067-6.827,2.5.908a6.936,6.936,0,0,0,2.372.418,6.774,6.774,0,0,0,6.342-4.265M122.868.162h-8.131A3.822,3.822,0,0,0,110.916,3.3l-.437,2.551a2.929,2.929,0,0,1-3.881,2.17l-2.5-.908a3.919,3.919,0,0,0-4.71,1.64l-4.067,6.824a3.658,3.658,0,0,0,.893,4.769l2.058,1.647a2.753,2.753,0,0,1,.4,3.959,2.39,2.39,0,0,1-.4.381l-2.058,1.643a3.664,3.664,0,0,0-.893,4.773l4.067,6.827a3.924,3.924,0,0,0,4.71,1.64l2.5-.908a2.927,2.927,0,0,1,3.735,1.647,2.594,2.594,0,0,1,.146.523l.437,2.551a3.821,3.821,0,0,0,3.817,3.134h8.134a3.821,3.821,0,0,0,3.817-3.134l.441-2.551a2.894,2.894,0,0,1,3.339-2.312,3.043,3.043,0,0,1,.542.142l2.495.908a3.918,3.918,0,0,0,4.71-1.64l4.067-6.827a3.663,3.663,0,0,0-.889-4.773v0l-2.062-1.643a2.774,2.774,0,0,1,0-4.344l2.062-1.643a3.658,3.658,0,0,0,.889-4.769l-4.067-6.827a3.918,3.918,0,0,0-4.71-1.64l-2.495.908a2.926,2.926,0,0,1-3.735-1.647,2.662,2.662,0,0,1-.146-.523L126.685,3.3a3.822,3.822,0,0,0-3.8-3.134h-.015" transform="translate(-94.801 -0.162)" fill="#1a1a1a"/>
    </clipPath>
  </defs>
  <g id="Group_4297" data-name="Group 4297" transform="translate(0 0)" clip-path="url(#clip-path)">
    <rect id="Rectangle_3290" data-name="Rectangle 3290" width="48.859" height="48.011" transform="translate(-0.43 -0.007)" fill="#1a1a1a"/>
  </g>
</svg>
